HIERARCHY
ROOT hip
{
  OFFSET 0 0 0
  CHANNELS 6 Xposition Yposition Zposition Zrotation Yrotation Xrotation
  JOINT abdomen
  {
    OFFSET 0 20.6881 -0.73152
    CHANNELS 3 Zrotation Xrotation Yrotation
    JOINT chest
    {
      OFFSET 0 11.7043 -0.48768
      CHANNELS 3 Zrotation Xrotation Yrotation
      JOINT neck
      {
        OFFSET 0 22.1894 -2.19456
        CHANNELS 3 Zrotation Xrotation Yrotation
        JOINT head
        {
          OFFSET -0.24384 7.07133 1.2192
          CHANNELS 3 Zrotation Xrotation Yrotation
          JOINT leftEye
          {
            OFFSET 4.14528 8.04674 8.04672
            CHANNELS 3 Zrotation Xrotation Yrotation
            End Site
            {
              OFFSET 1 0 0
            }
          }
          JOINT rightEye
          {
            OFFSET -3.6576 8.04674 8.04672
            CHANNELS 3 Zrotation Xrotation Yrotation
            End Site
            {
              OFFSET 1 0 0
            }
          }
        }
      }
      JOINT rCollar
      {
        OFFSET -2.68224 19.2634 -4.8768
        CHANNELS 3 Zrotation Xrotation Yrotation
        JOINT rShldr
        {
          OFFSET -8.77824 -1.95073 1.46304
          CHANNELS 3 Zrotation Xrotation Yrotation
          JOINT rForeArm
          {
            OFFSET -28.1742 -1.7115 0.48768
            CHANNELS 3 Zrotation Xrotation Yrotation
            JOINT rHand
            {
              OFFSET -22.5879 0.773209 7.07136
              CHANNELS 3 Zrotation Xrotation Yrotation
              JOINT rThumb1
              {
                OFFSET -1.2192 -0.487915 3.41376
                CHANNELS 3 Zrotation Xrotation Yrotation
                JOINT rThumb2
                {
                  OFFSET -3.37035 -0.52449 3.41376
                  CHANNELS 3 Zrotation Xrotation Yrotation
                  End Site
                  {
                    OFFSET -1.78271 -1.18214 1.43049
                  }
                }
              }
              JOINT rIndex1
              {
                OFFSET -7.75947 0.938293 5.60832
                CHANNELS 3 Zrotation Xrotation Yrotation
                JOINT rIndex2
                {
                  OFFSET -2.54057 -0.884171 1.56538
                  CHANNELS 3 Zrotation Xrotation Yrotation
                  End Site
                  {
                    OFFSET -1.62519 -0.234802 1.16502
                  }
                }
              }
              JOINT rMid1
              {
                OFFSET -8.24714 1.18213 3.41376
                CHANNELS 3 Zrotation Xrotation Yrotation
                JOINT rMid2
                {
                  OFFSET -3.10165 -0.590103 1.0647
                  CHANNELS 3 Zrotation Xrotation Yrotation
                  End Site
                  {
                    OFFSET -2.48547 -0.328903 0.83742
                  }
                }
              }
              JOINT rRing1
              {
                OFFSET -8.82822 0.546677 1.51678
                CHANNELS 3 Zrotation Xrotation Yrotation
                JOINT rRing2
                {
                  OFFSET -2.60934 -0.819778 -0.0198488
                  CHANNELS 3 Zrotation Xrotation Yrotation
                  End Site
                  {
                    OFFSET -2.33842 -0.294052 0.168128
                  }
                }
              }
              JOINT rPinky1
              {
                OFFSET -8.27202 -0.0477905 -0.4584
                CHANNELS 3 Zrotation Xrotation Yrotation
                JOINT rPinky2
                {
                  OFFSET -1.82734 -0.647385 -0.700984
                  CHANNELS 3 Zrotation Xrotation Yrotation
                  End Site
                  {
                    OFFSET -1.69225 -0.51767 -0.607171
                  }
                }
              }
            }
          }
        }
      }
      JOINT lCollar
      {
        OFFSET 2.68224 19.2634 -4.8768
        CHANNELS 3 Zrotation Xrotation Yrotation
        JOINT lShldr
        {
          OFFSET 8.77824 -1.95073 1.46304
          CHANNELS 3 Zrotation Xrotation Yrotation
          JOINT lForeArm
          {
            OFFSET 28.1742 -1.7115 0.48768
            CHANNELS 3 Zrotation Xrotation Yrotation
            JOINT lHand
            {
              OFFSET 22.5879 0.773209 7.07136
              CHANNELS 3 Zrotation Xrotation Yrotation
              JOINT lThumb1
              {
                OFFSET 1.2192 -0.487915 3.41376
                CHANNELS 3 Zrotation Xrotation Yrotation
                JOINT lThumb2
                {
                  OFFSET 3.37035 -0.52449 3.41376
                  CHANNELS 3 Zrotation Xrotation Yrotation
                  End Site
                  {
                    OFFSET 1.78271 -1.18214 1.43049
                  }
                }
              }
              JOINT lIndex1
              {
                OFFSET 7.75947 0.938293 5.60832
                CHANNELS 3 Zrotation Xrotation Yrotation
                JOINT lIndex2
                {
                  OFFSET 2.54057 -0.884171 1.56538
                  CHANNELS 3 Zrotation Xrotation Yrotation
                  End Site
                  {
                    OFFSET 1.62519 -0.234802 1.16502
                  }
                }
              }
              JOINT lMid1
              {
                OFFSET 8.24714 1.18213 3.41376
                CHANNELS 3 Zrotation Xrotation Yrotation
                JOINT lMid2
                {
                  OFFSET 3.10165 -0.590103 1.0647
                  CHANNELS 3 Zrotation Xrotation Yrotation
                  End Site
                  {
                    OFFSET 2.48547 -0.328903 0.83742
                  }
                }
              }
              JOINT lRing1
              {
                OFFSET 8.82822 0.546677 1.51678
                CHANNELS 3 Zrotation Xrotation Yrotation
                JOINT lRing2
                {
                  OFFSET 2.60934 -0.819778 -0.0198488
                  CHANNELS 3 Zrotation Xrotation Yrotation
                  End Site
                  {
                    OFFSET 2.33842 -0.294052 0.168128
                  }
                }
              }
              JOINT lPinky1
              {
                OFFSET 8.27202 -0.0477905 -0.4584
                CHANNELS 3 Zrotation Xrotation Yrotation
                JOINT lPinky2
                {
                  OFFSET 1.82734 -0.647385 -0.700984
                  CHANNELS 3 Zrotation Xrotation Yrotation
                  End Site
                  {
                    OFFSET 1.69225 -0.51767 -0.607171
                  }
                }
              }
            }
          }
        }
      }
    }
  }
  JOINT rButtock
  {
    OFFSET -8.77824 4.35084 1.2192
    CHANNELS 3 Zrotation Xrotation Yrotation
    JOINT rThigh
    {
      OFFSET 0 -1.70687 -2.19456
      CHANNELS 3 Zrotation Xrotation Yrotation
      JOINT rShin
      {
        OFFSET 0 -36.8199 0.73152
        CHANNELS 3 Zrotation Xrotation Yrotation
        JOINT rFoot
        {
          OFFSET 0.73152 -45.1104 -5.12064
          CHANNELS 3 Zrotation Xrotation Yrotation
          End Site
          {
            OFFSET -1.1221 -3.69964 12.103
          }
        }
      }
    }
  }
  JOINT lButtock
  {
    OFFSET 8.77824 4.35084 1.2192
    CHANNELS 3 Zrotation Xrotation Yrotation
    JOINT lThigh
    {
      OFFSET 0 -1.70687 -2.19456
      CHANNELS 3 Zrotation Xrotation Yrotation
      JOINT lShin
      {
        OFFSET 0 -36.8199 0.73152
        CHANNELS 3 Zrotation Xrotation Yrotation
        JOINT lFoot
        {
          OFFSET -0.73152 -45.1104 -5.12064
          CHANNELS 3 Zrotation Xrotation Yrotation
          End Site
          {
            OFFSET 1.1221 -3.69964 12.103
          }
        }
      }
    }
  }
}
MOTION
Frames:	9
Frame Time:	0.00833333
-69.2442 83.3048 14.7664 -313.906 -94.5472 325.231 7.75648 -3.67001 8.72298 0.958396 -15.9151 2.44098 -1.88494 -5.48401 -1.71427 -0.99348 2.81228 -2.97618 -0.0 0.0 0.0 -0.0 0.0 0.0 -5.23568e-14 -1.98579e-12 1.22728e-13 80.778 48.3826 -21.4273 -22.6362 -16.7441 45.5405 -1.4751 -32.2718 -5.09226 -1.46661e-09 1.95359e-10 -6.54696e-10 -2.5051e-09 3.29911e-10 -1.1627e-09 -1.46661e-09 1.95362e-10 -6.54711e-10 7.73091 5.47488 0.417314 -1.46661e-09 1.95362e-10 -6.54694e-10 2.90554 0.965183 0.102902 -1.46661e-09 1.95363e-10 -6.54693e-10 10.2786 0.731801 0.0259123 -1.46661e-09 1.95364e-10 -6.54686e-10 2.22167 -0.733487 -0.20892 -5.26049e-14 -1.9858e-12 1.22346e-13 -74.984 10.4077 20.4411 15.1554 -7.9214 -27.919 0.052885 6.49408 -0.916727 -1.02058e-09 1.07819e-09 -1.53672e-09 -1.77665e-09 1.87926e-09 -2.65076e-09 -1.02059e-09 1.07819e-09 -1.53672e-09 -7.73091 5.47488 -0.417314 -1.02058e-09 1.07819e-09 -1.53673e-09 -2.90554 0.965183 -0.102902 -1.0206e-09 1.07819e-09 -1.53672e-09 -10.2786 0.731801 -0.0259123 -1.02058e-09 1.0782e-09 -1.53672e-09 -2.22167 -0.733487 0.20892 -2.03217e-16 0.0 -3.88251e-19 22.8036 -0.762864 36.8105 -0.264873 7.49614 -2.41515 -40.852 -47.7078 -55.7992 2.03217e-16 0.0 3.88251e-19 0.130195 -27.4517 -19.4071 -0.0333864 10.267 -0.910563 -0.667902 -12.757 -3.0067
-68.8427 83.2907 14.4732 -315.771 -95.1306 327.13 7.9945 -3.63928 8.78957 0.890194 -15.9056 2.44358 -1.74261 -5.67154 -1.51513 -0.740355 3.42837 -2.64325 -0.0 0.0 0.0 -0.0 0.0 0.0 -1.00287e-13 -3.06281e-12 1.683e-13 81.3119 48.3872 -21.9648 -22.2281 -16.1035 44.4074 -1.44547 -31.9879 -5.03644 -7.45622e-10 1.33928e-10 -4.09563e-10 -1.27152e-09 2.26296e-10 -7.22724e-10 -7.45613e-10 1.33931e-10 -4.09579e-10 7.73091 5.47488 0.417314 -7.45621e-10 1.33929e-10 -4.0956e-10 2.90554 0.965183 0.102902 -7.45617e-10 1.33933e-10 -4.09561e-10 10.2786 0.731801 0.0259123 -7.45619e-10 1.33933e-10 -4.09554e-10 2.22167 -0.733487 -0.20892 -1.00566e-13 -3.06282e-12 1.68003e-13 -74.8547 10.8172 19.9443 15.3512 -8.09349 -28.3254 0.0484698 6.21102 -0.876449 -5.72851e-10 2.08867e-09 -3.42639e-10 -9.95523e-10 3.62068e-09 -5.88748e-10 -5.72855e-10 2.08867e-09 -3.4264e-10 -7.73091 5.47488 -0.417314 -5.72848e-10 2.08868e-09 -3.4264e-10 -2.90554 0.965183 -0.102902 -5.72861e-10 2.08867e-09 -3.42642e-10 -10.2786 0.731801 -0.0259123 -5.72848e-10 2.08868e-09 -3.42639e-10 -2.22167 -0.733487 0.20892 -2.03217e-16 0.0 -3.88251e-19 23.2747 -0.896379 37.1686 -0.267711 7.61954 -2.43902 -40.6748 -47.8587 -55.6667 2.03217e-16 0.0 3.88251e-19 0.824788 -27.5414 -19.0595 -0.0359227 9.89335 -0.909633 -0.618297 -13.0679 -2.68504
-68.4111 83.2585 14.2304 -318.851 -95.6003 330.337 8.17865 -3.64215 8.8272 0.844075 -15.8791 2.44081 -1.57984 -5.77199 -1.31668 -0.56935 3.85614 -2.31804 -0.0 0.0 0.0 -0.0 0.0 0.0 -1.23901e-13 -3.64863e-12 1.91728e-13 81.7116 48.3253 -22.321 -21.8032 -15.4646 43.2609 -1.39765 -31.534 -4.94724 -1.38382e-10 8.20647e-11 -3.20842e-10 -2.30104e-10 1.38574e-10 -5.56249e-10 -1.38372e-10 8.20671e-11 -3.20858e-10 7.73091 5.47488 0.417314 -1.3838e-10 8.20642e-11 -3.20838e-10 2.90554 0.965183 0.102902 -1.38378e-10 8.20679e-11 -3.2084e-10 10.2786 0.731801 0.0259123 -1.38379e-10 8.20682e-11 -3.20832e-10 2.22167 -0.733487 -0.20892 -1.2419e-13 -3.64865e-12 1.91479e-13 -74.7988 11.3054 19.5108 15.6184 -8.33743 -28.871 0.0409608 5.76673 -0.813236 -1.91673e-10 2.61375e-09 5.68104e-10 -3.31277e-10 4.52442e-09 9.84155e-10 -1.91676e-10 2.61374e-09 5.68104e-10 -7.73091 5.47488 -0.417314 -1.91671e-10 2.61376e-09 5.68108e-10 -2.90554 0.965183 -0.102902 -1.9168e-10 2.61375e-09 5.68101e-10 -10.2786 0.731801 -0.0259123 -1.91669e-10 2.61376e-09 5.68104e-10 -2.22167 -0.733487 0.20892 -2.03217e-16 0.0 -3.88251e-19 23.6764 -1.04465 37.5008 -0.271053 7.72879 -2.46817 -40.4707 -47.9439 -55.5476 2.03217e-16 0.0 3.88251e-19 1.42512 -27.6076 -18.8494 -0.0383839 9.54362 -0.907048 -0.574765 -13.4399 -2.43547
-68.0131 83.237 14.0434 -321.31 -95.9667 332.898 8.28927 -3.70125 8.83126 0.8237 -15.8217 2.43142 -1.37801 -5.74973 -1.1184 -0.518574 3.99629 -2.00501 -0.0 0.0 0.0 -0.0 0.0 0.0 -1.10193e-13 -3.51308e-12 1.82859e-13 81.9609 48.193 -22.463 -21.358 -14.8241 42.0841 -1.32335 -30.8085 -4.80644 3.88921e-10 5.16155e-11 -5.28861e-10 6.80315e-10 8.70506e-11 -9.05733e-10 3.8893e-10 5.1617e-11 -5.28875e-10 7.73091 5.47488 0.417314 3.88922e-10 5.1614e-11 -5.28859e-10 2.90554 0.965183 0.102902 3.88925e-10 5.16166e-11 -5.2886e-10 10.2786 0.731801 0.0259123 3.88922e-10 5.16177e-11 -5.28852e-10 2.22167 -0.733487 -0.20892 -1.10465e-13 -3.5131e-12 1.82605e-13 -74.8401 11.8862 19.1652 15.9888 -8.68358 -29.633 0.0301787 5.06928 -0.714204 1.55345e-10 2.37923e-09 1.14098e-09 2.71608e-10 4.11686e-09 1.97392e-09 1.55342e-10 2.37921e-09 1.14098e-09 -7.73091 5.47488 -0.417314 1.55346e-10 2.37923e-09 1.14098e-09 -2.90554 0.965183 -0.102902 1.55339e-10 2.37922e-09 1.14097e-09 -10.2786 0.731801 -0.0259123 1.5535e-10 2.37924e-09 1.14098e-09 -2.22167 -0.733487 0.20892 -2.03217e-16 0.0 -3.88251e-19 23.9882 -1.22088 37.803 -0.275465 7.82813 -2.50745 -40.2283 -47.9488 -55.449 2.03217e-16 0.0 3.88251e-19 1.89591 -27.6659 -18.7987 -0.0404794 9.24891 -0.90269 -0.541374 -13.8598 -2.27992
-67.6561 83.24 13.8808 -322.392 -96.3202 334.068 8.35064 -3.80363 8.81263 0.818841 -15.7426 2.41708 -1.15876 -5.66355 -0.924306 -0.530975 3.96908 -1.70474 -0.0 0.0 0.0 -0.0 0.0 0.0 -7.09495e-14 -2.89719e-12 1.51629e-13 82.0739 48.0142 -22.4097 -20.8912 -14.1789 40.8782 -1.23405 -29.8836 -4.63089 9.39226e-10 2.92241e-11 -9.14287e-10 1.63414e-09 4.92276e-11 -1.56226e-09 9.39235e-10 2.92244e-11 -9.14298e-10 7.73091 5.47488 0.417314 9.39227e-10 2.92217e-11 -9.14287e-10 2.90554 0.965183 0.102902 9.39231e-10 2.92223e-11 -9.14286e-10 10.2786 0.731801 0.0259123 9.39224e-10 2.92243e-11 -9.14277e-10 2.22167 -0.733487 -0.20892 -7.11862e-14 -2.8972e-12 1.51337e-13 -74.9506 12.5642 18.8665 16.4278 -9.09989 -30.5601 0.0195322 4.18849 -0.589549 5.0417e-10 1.62906e-09 1.56413e-09 8.76541e-10 2.81875e-09 2.70543e-09 5.04168e-10 1.62904e-09 1.56413e-09 -7.73091 5.47488 -0.417314 5.0417e-10 1.62906e-09 1.56414e-09 -2.90554 0.965183 -0.102902 5.04164e-10 1.62904e-09 1.56413e-09 -10.2786 0.731801 -0.0259123 5.04175e-10 1.62907e-09 1.56413e-09 -2.22167 -0.733487 0.20892 -2.03217e-16 0.0 -3.88251e-19 24.2404 -1.42326 38.0781 -0.280505 7.91898 -2.55268 -39.956 -47.9103 -55.3528 2.03217e-16 0.0 3.88251e-19 2.27678 -27.7203 -18.868 -0.0423687 8.9802 -0.896747 -0.511583 -14.3146 -2.175
-67.3113 83.2449 13.7192 -323.891 -96.6338 335.632 8.38878 -3.90815 8.77356 0.82899 -15.6665 2.39931 -0.950996 -5.54946 -0.732858 -0.551553 3.90717 -1.40687 -0.0 0.0 0.0 -0.0 0.0 0.0 -2.65924e-14 -2.13811e-12 1.13426e-13 82.0768 47.7841 -22.2228 -20.4115 -13.541 39.6768 -1.14837 -28.9334 -4.45488 1.35925e-09 -1.74975e-12 -1.25088e-09 2.3629e-09 -3.71045e-12 -2.13697e-09 1.35926e-09 -1.75062e-12 -1.25088e-09 7.73091 5.47488 0.417314 1.35925e-09 -1.75299e-12 -1.25088e-09 2.90554 0.965183 0.102902 1.35925e-09 -1.75441e-12 -1.25088e-09 10.2786 0.731801 0.0259123 1.35924e-09 -1.75143e-12 -1.25087e-09 2.22167 -0.733487 -0.20892 -2.67831e-14 -2.13811e-12 1.13094e-13 -75.0975 13.3055 18.5926 16.8713 -9.52796 -31.522 0.0119204 3.27877 -0.461207 7.54942e-10 7.97225e-10 1.81916e-09 1.31104e-09 1.38018e-09 3.14658e-09 7.5494e-10 7.972e-10 1.81916e-09 -7.73091 5.47488 -0.417314 7.54942e-10 7.97225e-10 1.81917e-09 -2.90554 0.965183 -0.102902 7.54936e-10 7.97204e-10 1.81917e-09 -10.2786 0.731801 -0.0259123 7.54948e-10 7.97231e-10 1.81916e-09 -2.22167 -0.733487 0.20892 -2.03217e-16 0.0 -3.88251e-19 24.4567 -1.62328 38.3336 -0.28522 7.99074 -2.59608 -39.6748 -47.8331 -55.2579 2.03217e-16 0.0 3.88251e-19 2.61545 -27.7344 -19.039 -0.0444859 8.68934 -0.889336 -0.484213 -14.8443 -2.10476
-66.9392 83.2478 13.4914 -325.295 -97.0219 337.049 8.42983 -3.97364 8.71628 0.853604 -15.6176 2.37966 -0.78316 -5.44346 -0.542446 -0.528108 3.94329 -1.10088 -0.0 0.0 0.0 -0.0 0.0 0.0 2.45745e-15 -1.57298e-12 8.36386e-14 81.9957 47.498 -21.9637 -19.9311 -12.9253 38.5128 -1.08021 -28.132 -4.30943 1.49569e-09 -5.79465e-11 -1.31239e-09 2.59815e-09 -1.00579e-10 -2.24103e-09 1.4957e-09 -5.79481e-11 -1.3124e-09 7.73091 5.47488 0.417314 1.49569e-09 -5.79502e-11 -1.31239e-09 2.90554 0.965183 0.102902 1.4957e-09 -5.79529e-11 -1.31239e-09 10.2786 0.731801 0.0259123 1.49568e-09 -5.79493e-11 -1.31238e-09 2.22167 -0.733487 -0.20892 2.31354e-15 -1.57298e-12 8.32908e-14 -75.2478 14.0764 18.3209 17.2628 -9.91546 -32.3866 0.00763818 2.49457 -0.350813 8.07804e-10 3.1771e-10 1.88765e-09 1.40261e-09 5.51206e-10 3.26525e-09 8.07802e-10 3.17685e-10 1.88766e-09 -7.73091 5.47488 -0.417314 8.07803e-10 3.17709e-10 1.88766e-09 -2.90554 0.965183 -0.102902 8.07797e-10 3.17687e-10 1.88766e-09 -10.2786 0.731801 -0.0259123 8.07809e-10 3.17714e-10 1.88766e-09 -2.22167 -0.733487 0.20892 -2.03217e-16 0.0 -3.88251e-19 24.6604 -1.79277 38.5767 -0.288728 8.03283 -2.62987 -39.4058 -47.7221 -55.1629 2.03217e-16 0.0 3.88251e-19 2.96042 -27.6717 -19.2927 -0.0472418 8.32814 -0.880592 -0.457522 -15.4885 -2.05317
-66.5446 83.2593 13.2174 -324.86 -97.5201 336.607 8.48154 -3.98214 8.6194 0.914219 -15.602 2.35515 -0.685739 -5.34408 -0.339573 -0.398679 4.08605 -0.751194 -0.0 0.0 0.0 -0.0 0.0 0.0 1.15978e-14 -1.28278e-12 6.53175e-14 81.8097 47.1484 -21.6172 -19.451 -12.3367 37.367 -1.0321 -27.5487 -4.20479 1.13854e-09 -1.86599e-10 -8.6933e-10 1.97366e-09 -3.23131e-10 -1.48124e-09 1.13855e-09 -1.86601e-10 -8.69338e-10 7.73091 5.47488 0.417314 1.13854e-09 -1.86603e-10 -8.69333e-10 2.90554 0.965183 0.102902 1.13855e-09 -1.86606e-10 -8.69328e-10 10.2786 0.731801 0.0259123 1.13853e-09 -1.86602e-10 -8.69322e-10 2.22167 -0.733487 -0.20892 1.15116e-14 -1.28278e-12 6.49975e-14 -75.4062 14.8987 18.048 17.6013 -10.263 -33.1341 0.00446116 1.83291 -0.257734 5.05514e-10 4.19367e-10 1.66153e-09 8.78901e-10 7.27993e-10 2.87466e-09 5.05512e-10 4.19345e-10 1.66153e-09 -7.73091 5.47488 -0.417314 5.05513e-10 4.19365e-10 1.66153e-09 -2.90554 0.965183 -0.102902 5.05506e-10 4.19346e-10 1.66153e-09 -10.2786 0.731801 -0.0259123 5.05519e-10 4.19369e-10 1.66153e-09 -2.22167 -0.733487 0.20892 -2.03217e-16 0.0 -3.88251e-19 24.8673 -1.92612 38.7984 -0.290892 8.0461 -2.65203 -39.1652 -47.5731 -55.0843 2.03217e-16 0.0 3.88251e-19 3.33663 -27.5157 -19.6191 -0.0508707 7.87055 -0.869442 -0.423474 -16.248 -1.98632
-66.187 83.2836 13.0156 -324.512 -97.9458 336.248 8.52987 -3.9579 8.48906 1.00387 -15.6067 2.32608 -0.636121 -5.23581 -0.129465 -0.208833 4.27355 -0.374236 -0.0 0.0 0.0 -0.0 0.0 0.0 1.14389e-14 -1.09067e-12 5.06062e-14 81.5211 46.7379 -21.1666 -18.97 -11.772 36.2283 -0.994057 -27.0833 -4.12174 4.2593e-10 -3.64568e-10 -9.87505e-11 7.30823e-10 -6.3131e-10 -1.61507e-10 4.25938e-10 -3.6457e-10 -9.87619e-11 7.73091 5.47488 0.417314 4.25933e-10 -3.64572e-10 -9.87506e-11 2.90554 0.965183 0.102902 4.25935e-10 -3.64574e-10 -9.8748e-11 10.2786 0.731801 0.0259123 4.25925e-10 -3.64571e-10 -9.87425e-11 2.22167 -0.733487 -0.20892 1.1422e-14 -1.09066e-12 5.03391e-14 -75.585 15.7805 17.7859 17.9152 -10.5957 -33.8292 0.00187051 1.22618 -0.172392 -5.51328e-11 8.33029e-10 1.18499e-09 -9.26385e-11 1.44512e-09 2.05136e-09 -5.51356e-11 8.33015e-10 1.185e-09 -7.73091 5.47488 -0.417314 -5.51332e-11 8.33026e-10 1.18499e-09 -2.90554 0.965183 -0.102902 -5.51411e-11 8.33014e-10 1.185e-09 -10.2786 0.731801 -0.0259123 -5.51286e-11 8.33029e-10 1.18499e-09 -2.22167 -0.733487 0.20892 -2.03217e-16 0.0 -3.88251e-19 25.0609 -2.0383 38.9983 -0.292238 8.03497 -2.66669 -38.9386 -47.3854 -55.0176 2.03217e-16 0.0 3.88251e-19 3.7168 -27.2878 -20.0287 -0.0549775 7.34666 -0.856238 -0.385333 -17.1049 -1.92275
